<svg width="47" height="13" viewBox="0 0 47 13" fill="none" xmlns="http://www.w3.org/2000/svg">
<rect width="47" height="13" fill="#F5F5F5"/>
<path d="M4.96 12.136C4.96 12.36 4.86933 12.5573 4.688 12.728C4.51733 12.888 4.31467 12.968 4.08 12.968C3.84533 12.968 3.6 12.8133 3.344 12.504C3.09867 12.184 2.976 11.912 2.976 11.688C2.976 11.4213 3.04533 11.1493 3.184 10.872C3.19467 10.7973 3.232 10.424 3.296 9.752C3.36 9.08 3.52533 7.94933 3.792 6.36C4.06933 4.76 4.24533 3.672 4.32 3.096V2.936C4.32 2.68 4.224 2.552 4.032 2.552C3.85067 2.552 3.664 2.648 3.472 2.84C3.49333 2.88267 3.504 2.968 3.504 3.096C3.504 3.224 3.36 3.63467 3.072 4.328C2.784 5.01067 2.37333 6.05067 1.84 7.448C1.68 7.832 1.46667 8.024 1.2 8.024C0.933333 8.024 0.693333 7.864 0.48 7.544C0.266667 7.224 0.16 6.952 0.16 6.728C0.16 6.49333 0.197333 6.27467 0.272 6.072C0.538667 5.432 0.842667 4.79733 1.184 4.168C1.52533 3.528 1.792 3.02133 1.984 2.648C2.18667 2.27467 2.336 2.00267 2.432 1.832C2.53867 1.66133 2.64533 1.576 2.752 1.576C2.85867 1.576 2.95467 1.58667 3.04 1.608C3.24267 1.36267 3.51467 1.24 3.856 1.24C4.19733 1.24 4.53867 1.34667 4.88 1.56C5.232 1.77333 5.408 2.30667 5.408 3.16C5.408 3.45867 5.38133 3.89067 5.328 4.456C5.27467 5.01067 5.24267 5.36267 5.232 5.512C6.096 3.048 6.864 1.50667 7.536 0.888C7.65333 0.770666 7.81867 0.712 8.032 0.712C8.512 0.712 8.81067 0.808 8.928 0.999999C9.056 1.18133 9.12 1.52267 9.12 2.024C9.12 2.51467 9.072 3.048 8.976 3.624C8.88 4.2 8.73067 4.93067 8.528 5.816C8.32533 6.69067 8.192 7.272 8.128 7.56C8.07467 7.83733 8.048 8.10933 8.048 8.376C8.048 8.64267 8.064 8.776 8.096 8.776C8.18133 8.776 8.39467 8.49333 8.736 7.928C9.088 7.352 9.296 7.064 9.36 7.064C9.424 7.064 9.456 7.16533 9.456 7.368C9.456 8.08267 9.37067 8.84 9.2 9.64C9.04 10.44 8.80533 11.048 8.496 11.464C8.19733 11.88 7.92533 12.088 7.68 12.088C7.57333 12.088 7.44 12.0293 7.28 11.912C7.12 11.784 7.024 11.704 6.992 11.672C6.64 11.288 6.464 10.728 6.464 9.992C6.464 9.34133 6.79467 7.41067 7.456 4.2C7.65867 3.176 7.79733 2.46667 7.872 2.072C7.072 3.416 6.448 4.84 6 6.344C5.56267 7.83733 5.22133 9.53867 4.976 11.448L4.928 11.848L4.96 12.136ZM13.7214 8.424C13.7214 9.71467 13.348 10.8613 12.6014 11.864C12.3347 12.2053 12.036 12.376 11.7054 12.376C11.3854 12.376 11.1294 12.296 10.9374 12.136C10.244 11.56 9.89738 10.5733 9.89738 9.176C9.89738 8.20533 10.1587 6.968 10.6814 5.464C10.724 5.35733 10.7614 5.29333 10.7934 5.272C10.8254 5.24 10.8787 5.224 10.9534 5.224C11.0387 5.224 11.14 5.17067 11.2574 5.064C11.3747 4.94667 11.5667 4.888 11.8334 4.888C12.1107 4.888 12.388 4.98933 12.6654 5.192C12.9427 5.39467 13.1454 5.66667 13.2734 6.008C13.572 6.808 13.7214 7.61333 13.7214 8.424ZM12.3934 7.384C12.3934 6.40267 12.2707 5.912 12.0254 5.912C11.908 5.912 11.8014 6.00267 11.7054 6.184C11.2787 7.19733 11.0654 8.408 11.0654 9.816C11.0654 10.168 11.0707 10.4347 11.0814 10.616C11.956 9.944 12.3934 8.86667 12.3934 7.384ZM22.21 12.136C22.21 12.36 22.1193 12.5573 21.938 12.728C21.7673 12.888 21.5647 12.968 21.33 12.968C21.0953 12.968 20.85 12.8133 20.594 12.504C20.3487 12.184 20.226 11.912 20.226 11.688C20.226 11.4213 20.2953 11.1493 20.434 10.872C20.4447 10.7973 20.482 10.424 20.546 9.752C20.61 9.08 20.7753 7.94933 21.042 6.36C21.3193 4.76 21.4953 3.672 21.57 3.096V2.936C21.57 2.68 21.474 2.552 21.282 2.552C21.1007 2.552 20.914 2.648 20.722 2.84C20.7433 2.88267 20.754 2.968 20.754 3.096C20.754 3.224 20.61 3.63467 20.322 4.328C20.034 5.01067 19.6233 6.05067 19.09 7.448C18.93 7.832 18.7167 8.024 18.45 8.024C18.1833 8.024 17.9433 7.864 17.73 7.544C17.5167 7.224 17.41 6.952 17.41 6.728C17.41 6.49333 17.4473 6.27467 17.522 6.072C17.7887 5.432 18.0927 4.79733 18.434 4.168C18.7753 3.528 19.042 3.02133 19.234 2.648C19.4367 2.27467 19.586 2.00267 19.682 1.832C19.7887 1.66133 19.8953 1.576 20.002 1.576C20.1087 1.576 20.2047 1.58667 20.29 1.608C20.4927 1.36267 20.7647 1.24 21.106 1.24C21.4473 1.24 21.7887 1.34667 22.13 1.56C22.482 1.77333 22.658 2.30667 22.658 3.16C22.658 3.45867 22.6313 3.89067 22.578 4.456C22.5247 5.01067 22.4927 5.36267 22.482 5.512C23.346 3.048 24.114 1.50667 24.786 0.888C24.9033 0.770666 25.0687 0.712 25.282 0.712C25.762 0.712 26.0607 0.808 26.178 0.999999C26.306 1.18133 26.37 1.52267 26.37 2.024C26.37 2.51467 26.322 3.048 26.226 3.624C26.13 4.2 25.9807 4.93067 25.778 5.816C25.5753 6.69067 25.442 7.272 25.378 7.56C25.3247 7.83733 25.298 8.10933 25.298 8.376C25.298 8.64267 25.314 8.776 25.346 8.776C25.4313 8.776 25.6447 8.49333 25.986 7.928C26.338 7.352 26.546 7.064 26.61 7.064C26.674 7.064 26.706 7.16533 26.706 7.368C26.706 8.08267 26.6207 8.84 26.45 9.64C26.29 10.44 26.0553 11.048 25.746 11.464C25.4473 11.88 25.1753 12.088 24.93 12.088C24.8233 12.088 24.69 12.0293 24.53 11.912C24.37 11.784 24.274 11.704 24.242 11.672C23.89 11.288 23.714 10.728 23.714 9.992C23.714 9.34133 24.0447 7.41067 24.706 4.2C24.9087 3.176 25.0473 2.46667 25.122 2.072C24.322 3.416 23.698 4.84 23.25 6.344C22.8127 7.83733 22.4713 9.53867 22.226 11.448L22.178 11.848L22.21 12.136ZM30.6514 10.088C29.7767 11.656 29.11 12.44 28.6514 12.44C28.3207 12.44 28.022 12.2373 27.7554 11.832C27.6807 11.7253 27.6007 11.56 27.5154 11.336C27.43 11.1013 27.3234 10.888 27.1954 10.696C27.078 10.504 27.0194 10.248 27.0194 9.928C27.0194 9.59733 27.0834 9.304 27.2114 9.048C28.086 7.32 29.0087 6.136 29.9794 5.496C30.1074 5.4 30.2567 5.352 30.4274 5.352C30.598 5.352 30.8114 5.448 31.0674 5.64C31.2167 5.78933 31.3074 5.91733 31.3394 6.024C31.3927 6.25867 31.4194 6.40267 31.4194 6.456C31.7927 6.584 31.9794 6.81867 31.9794 7.16C31.9794 7.39467 31.9154 7.928 31.7874 8.76C31.6594 9.58133 31.5847 10.1947 31.5634 10.6C31.5634 10.824 31.638 10.936 31.7874 10.936C31.958 10.936 32.262 10.6373 32.6994 10.04C33.1474 9.44267 33.4034 9.144 33.4674 9.144C33.574 9.144 33.6274 9.32 33.6274 9.672L33.5954 10.456C33.5954 10.7547 33.462 11.1653 33.1954 11.688C32.9287 12.2 32.5874 12.456 32.1714 12.456C31.9154 12.456 31.7127 12.3707 31.5634 12.2C31.51 12.1467 31.43 12.04 31.3234 11.88C30.9927 11.4 30.7687 10.8027 30.6514 10.088ZM30.7954 6.392C29.4514 7.61867 28.598 9.02133 28.2354 10.6C29.3127 9.672 30.166 8.26933 30.7954 6.392ZM39.0989 6.792C39.0989 6.664 39.0882 6.6 39.0669 6.6C39.0242 6.6 38.9762 6.68533 38.9229 6.856C38.7309 7.34667 38.2829 8.87733 37.5789 11.448C37.4722 11.8213 37.3602 12.008 37.2429 12.008C37.1895 12.008 37.0935 11.9653 36.9549 11.88C36.4109 11.4853 36.1389 11 36.1389 10.424C36.1389 9.96533 36.2135 9.34133 36.3629 8.552C36.5335 7.57067 36.6189 7.04267 36.6189 6.968C36.6189 6.88267 36.6029 6.84 36.5709 6.84C36.5495 6.84 36.5122 6.89333 36.4589 7C35.9149 8.30133 35.5842 9.85333 35.4669 11.656C35.4455 11.976 35.3389 12.136 35.1469 12.136C34.8909 12.136 34.6615 11.9867 34.4589 11.688C34.0855 11.1547 33.8989 10.5573 33.8989 9.896C33.8989 9.48 33.9469 8.952 34.0429 8.312C34.1495 7.672 34.2135 7.28267 34.2349 7.144C34.4162 6.024 34.5815 5.464 34.7309 5.464C34.8482 5.464 34.9389 5.61867 35.0029 5.928C35.0669 6.22667 35.0989 6.44533 35.0989 6.584C35.0989 6.72267 35.1202 6.792 35.1629 6.792C35.2802 6.792 35.3975 6.66933 35.5149 6.424C35.6322 6.168 35.7762 5.91733 35.9469 5.672C36.1175 5.416 36.3255 5.288 36.5709 5.288C36.8269 5.288 37.0615 5.384 37.2749 5.576C37.4882 5.75733 37.6215 5.98133 37.6749 6.248C37.8029 6.06667 38.0162 5.816 38.3149 5.496C38.4749 5.272 38.6349 5.16 38.7949 5.16C38.9655 5.16 39.2109 5.24 39.5309 5.4C39.9682 5.624 40.1869 6.21067 40.1869 7.16C40.1869 8.10933 40.1549 8.92533 40.0909 9.608V9.72C40.0909 9.88 40.1229 9.96 40.1869 9.96C40.2829 9.96 40.5175 9.69333 40.8909 9.16C41.2642 8.616 41.4935 8.344 41.5789 8.344C41.7282 8.344 41.8029 8.728 41.8029 9.496C41.8029 10.2533 41.5309 11.0107 40.9869 11.768C40.7309 12.12 40.5122 12.296 40.3309 12.296L40.1549 12.248C39.7282 12.024 39.4242 11.768 39.2429 11.48C39.0615 11.192 38.9709 10.7333 38.9709 10.104L39.0989 6.792ZM46.8689 10.088C46.8689 11.7093 46.0475 12.52 44.4049 12.52C43.7222 12.52 43.2209 12.344 42.9009 11.992C42.5915 11.64 42.3195 11.1013 42.0849 10.376C41.9995 10.0987 41.9569 9.80533 41.9569 9.496C41.9569 9.176 42.0955 8.75467 42.3729 8.232C42.6609 7.69867 42.9755 7.23467 43.3169 6.84C43.3595 6.25333 43.4929 5.96 43.7169 5.96C43.8342 5.96 43.9142 6.02933 43.9569 6.168C44.1809 5.96533 44.4529 5.768 44.7729 5.576C45.0929 5.384 45.3809 5.288 45.6369 5.288C45.8929 5.288 46.1542 5.43733 46.4209 5.736C46.6982 6.03467 46.8369 6.344 46.8369 6.664C46.8369 6.97333 46.6182 7.4 46.1809 7.944C45.3595 8.968 44.7142 9.48 44.2449 9.48C43.9035 9.48 43.6369 9.19733 43.4449 8.632C43.4342 8.65333 43.3809 8.744 43.2849 8.904C43.1995 9.05333 43.1355 9.16533 43.0929 9.24C43.0609 9.31467 43.0129 9.416 42.9489 9.544C42.8422 9.78933 42.7889 10.008 42.7889 10.2C42.7889 10.6373 43.0075 10.856 43.4449 10.856C44.1702 10.856 44.7835 10.7067 45.2849 10.408C45.7969 10.0987 46.3035 9.63467 46.8049 9.016C46.8475 9.48533 46.8689 9.84267 46.8689 10.088ZM44.2609 8.152C44.4315 8.152 44.6822 7.944 45.0129 7.528C45.3542 7.112 45.5249 6.82933 45.5249 6.68C45.5249 6.52 45.4662 6.44 45.3489 6.44C45.2422 6.44 45.0502 6.57867 44.7729 6.856C44.5062 7.13333 44.2929 7.37333 44.1329 7.576C44.1115 7.704 44.1009 7.8 44.1009 7.864C44.1009 8.056 44.1542 8.152 44.2609 8.152Z" fill="black"/>
</svg>
